<svg xmlns="http://www.w3.org/2000/svg" viewBox="0 0 455 206.822"><path fill="#fff" d="M0 0h154.713v206.819H0z"/><path d="M0 88.387v118.435h154.718V88.864S130.951 81.682 81 81.682 0 88.387 0 88.387z" fill="#ffe36c"/><path d="M0 .008v39.051s33.466-3.35 78.088-3.35 76.625 2.873 76.625 2.873V0z" fill="#c7dfe7"/><path d="M146.469 50.076c-3.88.958-4.364 1.912-8.726-.481s-9.219-5.27-14.553-3.831S115.917 49.6 113 49.6s-8.247-3.827-11.153-5.27-4.369-1.435-8.732.958-8.243 2.874-11.639 0-8.725-2.879-14.546 1.912-4.366 6.7-11.639 8.139-13.091-3.351-17.454-3.351-7.767 6.229-11.643 7.182-6.3-2.869-11.157-1.915-2.907 5.27-6.792 6.223A27.159 27.159 0 0 1 0 63.959v19.162s26.679-8.144 77.117-8.144c43.68 0 70.976 6.1 77.514 7.737V46.61a41.979 41.979 0 0 1-8.162 3.466z" fill="#00708b"/><path d="M208.223 95.775c-8.746 0-17.074-.974-22.488-2.5V2.219A142.262 142.262 0 0 1 207.528 0c15.133 0 27.349 8.049 27.349 24.423 0 10.693-6.247 17.908-14.991 21.1v.554c10.823 2.5 18.182 11.1 18.182 23.038 0 16.247-11.798 26.66-29.845 26.66zm-.974-89.814a98.833 98.833 0 0 0-14.985 1.389v36.091H204.9c14.991 0 23.038-7.494 23.038-19.018-.005-12.493-9.718-18.462-20.689-18.462zm-3.606 43.45h-11.379v38.726a83.884 83.884 0 0 0 15.821 1.525c14.021 0 22.765-7.5 22.765-20.544 0-14.293-10.276-19.707-27.207-19.707zm110.926 45.11c-2.222-8.461-6.526-21.513-11.523-35.671H263.2c-5.131 14.433-9.434 27.761-11.522 35.4h-6.656c3.881-17.771 19.709-60.942 34.142-92.86h8.189c14.858 32.341 30.537 75.927 34.007 92.581zM283.331 8.46h-.412c-5.416 12.358-11.8 28.876-17.493 44.556h35.537c-5.554-15.4-11.944-31.647-17.632-44.556zm71.413 87.315c-9.582 0-18.737-2.779-23.458-6.528l1.249-7.355c4.864 4.02 11.664 7.63 22.209 7.63 9.44 0 19.3-5.131 19.3-17.348 0-24.293-41.089-19.573-41.089-46.92C332.953 9.85 343.92 0 359.881 0a51.192 51.192 0 0 1 20.266 3.885l-1.105 6.935a41.909 41.909 0 0 0-19.161-4.576c-11.106 0-19.99 5.826-19.99 18.6 0 22.068 41.232 18.183 41.232 46.5 0 15.542-11.107 24.431-26.379 24.431zm60.922 0c-9.578 0-18.742-2.779-23.461-6.528l1.249-7.355c4.86 4.02 11.667 7.63 22.212 7.63 9.435 0 19.3-5.131 19.3-17.348 0-24.293-41.084-19.573-41.084-46.92C393.878 9.85 404.833 0 420.8 0a51.177 51.177 0 0 1 20.268 3.885l-1.107 6.935A41.876 41.876 0 0 0 420.8 6.244c-11.1 0-19.984 5.826-19.984 18.6 0 22.068 41.226 18.183 41.226 46.5-.003 15.542-11.108 24.431-26.376 24.431zm-200.249 79.901c-18.306 0-29.682-12.523-29.682-32.674 0-19.428 11.437-32.485 28.459-32.485 8.343 0 15.521 2.865 19.692 7.868l.15.178-.139.188-2.714 3.651-.22.3-.239-.28c-5.325-6.182-12.643-7.1-16.53-7.1-13.819 0-23.1 11.125-23.1 27.688 0 17.455 9.093 27.876 24.325 27.876 6.532 0 14.118-2.359 18.437-5.743l.413-.316.061.518.559 4.966.02.16-.135.091c-4.584 3.359-13.2 5.122-19.355 5.122zm52.412 0c-16.711 0-28.836-13.739-28.836-32.674 0-18.828 12.125-32.485 28.836-32.485 16.812 0 29.019 13.657 29.019 32.485 0 18.627-12.474 32.674-29.019 32.674zm0-60.362c-14.044 0-23.476 11.125-23.476 27.688 0 16.152 9.868 27.876 23.476 27.876 13.876 0 23.564-11.461 23.564-27.876 0-16.045-9.907-27.688-23.564-27.688zm77.827 59.54l-.063-.234c-1.349-5.148-3.955-13.218-7.523-23.352l-.094-.274-.07-.206h-26.447l-.077.2-.1.278c-3.235 9.152-6.113 18.023-7.507 23.159l-.058.221h-5.076l.077-.362c2.631-12.061 13.4-41.339 23.03-62.659l.083-.176h5.887l.078.168c10.392 22.623 20.686 51.646 22.948 62.483l.07.325-.334.024-4.577.382-.248.021zm-20.971-57.945l-.289.663-.38.887c-3.1 7.224-6.723 16.507-10.492 26.837l-.2.55-.151.424h23.125l-.148-.424-.2-.55c-3.486-9.57-7.247-19.1-10.591-26.837l-.387-.887-.281-.663zm49.357 58.767c-6.307 0-12.587-1.756-16-4.464l-.137-.112.032-.164.844-4.961.087-.5.386.321a21.964 21.964 0 0 0 14.784 5.081c5.861 0 12.715-2.988 12.715-11.4 0-7.766-6.345-11.021-13.065-14.467-6.866-3.514-14.636-7.5-14.636-17.17 0-10.356 7.418-17.32 18.449-17.32a34.544 34.544 0 0 1 13.782 2.648l.211.09-.038.23-.752 4.666-.065.4-.359-.2a28.062 28.062 0 0 0-12.779-3.042c-8.257 0-13.177 4.576-13.177 12.251 0 6.788 5.761 9.748 12.428 13.164 7.207 3.687 15.366 7.876 15.366 18.186 0 10.183-7.1 16.761-18.08 16.761zm49.373-1.028h-5.085v-58.306h-18.619v-4.891h42.328v4.891h-18.624v58.306zM455 203.652a562.256 562.256 0 0 0-33.42-6.18c-16.5-2.532-33.766-4.481-51.308-5.788-18-1.335-36.526-2.018-55.071-2.018s-37.078.683-55.076 2.018c-17.541 1.307-34.809 3.256-51.307 5.788a554.352 554.352 0 0 0-33.424 6.18v3.17a554.877 554.877 0 0 1 33.832-6.27c16.436-2.532 33.627-4.472 51.1-5.767 17.931-1.341 36.4-2.012 54.877-2.012s36.944.671 54.875 2.012c17.471 1.3 34.659 3.235 51.1 5.767a556.297 556.297 0 0 1 33.827 6.27z" fill="#1e1e1e"/></svg>